<?xml version="1.0" standalone="no"?>
<!DOCTYPE svg PUBLIC "-//W3C//DTD SVG 20010904//EN"
 "http://www.w3.org/TR/2001/REC-SVG-20010904/DTD/svg10.dtd">
<svg version="1.0" xmlns="http://www.w3.org/2000/svg"
 width="1024.000000pt" height="1024.000000pt" viewBox="0 0 1024.000000 1024.000000"
 preserveAspectRatio="xMidYMid meet">
<metadata>
Created by potrace 1.11, written by Peter Selinger 2001-2013
</metadata>
<g transform="translate(0.000000,1024.000000) scale(0.100000,-0.100000)"
fill="#000000" stroke="none">
<path d="M0 5120 l0 -5120 5120 0 5120 0 0 5120 0 5120 -5120 0 -5120 0 0
-5120z m7123 1036 c42 -17 83 -66 97 -114 6 -20 43 -356 84 -746 57 -548 71
-717 64 -745 -15 -54 -52 -97 -100 -115 -28 -10 -420 -55 -1102 -126 -883 -92
-1064 -109 -1093 -99 -47 15 -99 63 -112 102 -16 46 -163 1456 -157 1496 3 18
15 49 28 67 49 71 7 65 1133 183 567 60 1052 109 1078 110 26 1 62 -5 80 -13z
m-3950 -323 c-7 -54 -16 -160 -20 -235 -3 -76 -10 -138 -14 -138 -32 0 -39 14
-39 79 0 82 -27 130 -101 180 -40 28 -60 34 -119 39 -151 10 -249 -78 -226
-204 11 -55 68 -109 221 -209 179 -117 236 -169 275 -249 109 -222 13 -456
-221 -537 -84 -29 -254 -32 -343 -5 -32 9 -62 14 -66 9 -4 -4 -13 -37 -19 -73
-17 -92 -19 -97 -42 -103 -17 -5 -19 -1 -14 26 13 79 25 235 26 329 1 149 10
210 29 198 9 -6 16 -34 21 -84 7 -89 40 -152 107 -203 133 -101 326 -69 395
66 30 61 34 109 12 171 -25 70 -69 114 -212 211 -160 109 -229 174 -269 249
-26 50 -29 64 -29 155 0 111 9 136 72 206 88 97 240 130 438 94 44 -8 81 -15
81 -15 1 0 7 28 14 63 16 75 17 77 39 77 16 0 17 -6 4 -97z m211 46 c3 -17 6
-44 6 -59 0 -27 2 -28 68 -33 272 -25 1075 -14 1093 14 5 8 11 33 15 57 5 34
10 42 28 42 l21 0 -23 -192 c-32 -272 -29 -257 -53 -251 -20 6 -21 10 -15 93
6 69 4 89 -7 98 -33 27 -402 84 -443 68 -12 -5 -14 -88 -14 -543 0 -296 4
-543 8 -549 4 -6 54 -16 111 -23 109 -12 121 -15 121 -34 0 -9 -84 -12 -340
-12 -312 0 -340 1 -340 17 0 13 12 18 53 23 28 3 79 9 112 13 l60 7 8 280 c4
154 5 403 1 554 l-6 273 -112 -7 c-125 -8 -239 -27 -302 -51 -42 -16 -43 -18
-58 -85 -9 -37 -16 -74 -16 -82 0 -15 -29 -32 -38 -22 -3 2 0 69 7 149 6 79
11 176 11 215 0 63 2 71 19 71 13 0 20 -10 25 -31z m-1414 -89 c-1 -17 -22
-28 -74 -38 -33 -7 -61 -14 -64 -16 -8 -9 184 -554 284 -809 83 -209 135 -317
152 -317 8 0 44 -5 79 -11 47 -8 63 -15 63 -28 0 -14 -27 -16 -290 -16 -264 0
-290 2 -290 17 0 13 18 19 90 29 71 9 90 15 86 26 -3 8 -30 85 -60 171 -30 86
-69 197 -86 246 l-33 88 -153 -7 c-84 -4 -177 -10 -206 -14 -52 -6 -52 -6 -66
-51 -32 -110 -102 -396 -102 -421 0 -29 -3 -27 108 -44 30 -5 42 -12 42 -23 0
-15 -21 -17 -230 -15 -127 1 -230 4 -230 7 0 3 0 10 0 15 0 5 35 15 77 22 l77
14 70 170 c38 94 135 346 216 560 125 331 145 391 131 396 -9 4 -40 10 -68 14
-40 5 -53 11 -53 23 0 15 25 17 265 17 146 0 265 -2 265 -5z m6113 -54 c126
-171 375 -473 719 -870 14 -17 29 -28 33 -25 17 17 -20 877 -38 896 -2 2 -43
9 -90 15 -63 8 -87 16 -90 27 -3 14 22 16 235 16 211 0 238 -2 238 -16 0 -12
-18 -20 -67 -30 -65 -14 -67 -15 -74 -49 -14 -65 -28 -353 -40 -775 -6 -231
-15 -426 -19 -434 -5 -9 -68 57 -206 215 -304 348 -434 501 -606 710 -86 105
-164 197 -173 204 -15 12 -16 -3 -10 -186 12 -410 27 -750 34 -784 7 -38 15
-41 144 -55 44 -5 57 -10 57 -23 0 -15 -23 -17 -250 -17 -226 0 -250 2 -250
17 0 11 12 18 43 23 96 15 107 18 112 34 15 48 57 1093 44 1106 -3 2 -45 8
-95 11 -80 6 -103 14 -104 36 0 9 77 14 261 16 l145 2 47 -64z"/>
<path d="M6730 5572 c-74 -8 -136 -15 -138 -16 -3 -3 58 -580 62 -583 2 -2 80
4 175 14 l171 17 0 40 c0 23 -3 58 -6 79 l-7 38 -83 -7 -84 -7 0 30 c0 27 4
31 38 37 20 3 54 6 75 6 34 0 37 2 37 29 0 15 -3 50 -7 76 l-6 47 -79 -7 -78
-6 0 29 c0 26 4 30 38 36 20 3 51 6 69 6 17 0 35 5 38 11 4 5 4 41 0 80 l-7
69 -37 -1 c-20 -1 -97 -8 -171 -17z m150 -71 c0 -5 -39 -12 -86 -16 l-85 -7 6
-56 c3 -32 9 -74 12 -96 l5 -39 84 7 c109 9 110 -8 2 -20 -74 -8 -83 -11 -81
-29 0 -11 4 -55 8 -98 l7 -78 36 5 c104 15 142 17 142 8 0 -7 -191 -36 -195
-29 -6 10 -44 431 -39 436 6 6 90 17 152 20 17 0 32 -3 32 -8z"/>
<path d="M6421 5539 c-35 -4 -66 -11 -69 -13 -3 -3 0 -52 6 -108 6 -56 10
-103 9 -104 -1 -1 -42 44 -91 98 l-89 100 -76 -6 c-42 -4 -77 -8 -78 -9 -2 -3
59 -581 62 -585 3 -3 177 16 181 21 2 2 -1 45 -7 96 -6 51 -9 97 -7 102 2 6
42 -33 88 -86 l85 -97 75 6 c41 4 76 9 79 12 4 4 -46 507 -55 557 -6 30 -7 30
-113 16z m53 -254 c10 -93 20 -189 23 -212 4 -33 2 -43 -8 -43 -8 0 -86 82
-174 181 -87 100 -161 177 -163 171 -1 -5 6 -94 18 -198 18 -171 19 -207 5
-192 -3 2 -15 102 -28 221 -17 166 -20 217 -10 217 6 0 83 -80 169 -177 86
-98 161 -179 165 -181 4 -2 6 12 3 30 -9 68 -34 318 -34 345 0 16 4 23 9 18 4
-6 16 -86 25 -180z"/>
<path d="M5847 5480 c-38 -5 -70 -10 -72 -12 -5 -6 57 -573 64 -579 3 -3 48
-2 99 4 l92 10 -1 36 c0 20 -12 151 -27 291 l-27 255 -30 1 c-17 1 -61 -2 -98
-6z m48 -122 c23 -191 40 -388 33 -388 -11 0 -15 26 -33 205 -9 88 -18 177
-21 198 -4 22 -2 37 4 37 6 0 13 -24 17 -52z"/>
<path d="M5460 5445 c-72 -23 -140 -82 -175 -150 -27 -52 -30 -68 -29 -144 0
-69 5 -96 24 -135 64 -132 204 -197 355 -166 58 12 145 51 165 75 6 8 -8 36
-46 88 l-56 77 -29 -24 c-74 -63 -194 -36 -218 49 -12 45 1 94 35 126 22 20
35 24 87 23 34 0 71 -4 83 -8 22 -8 22 -7 81 131 13 33 13 33 -24 49 -53 23
-196 28 -253 9z m168 -75 c12 0 22 -4 22 -9 0 -4 -30 -8 -68 -8 -77 0 -134
-23 -175 -73 -80 -95 -45 -260 67 -311 50 -23 140 -25 180 -4 32 17 46 19 46
6 0 -5 -18 -16 -40 -25 -103 -41 -230 -2 -284 87 -25 41 -30 60 -30 115 -1 56
4 75 27 115 15 26 45 59 66 72 40 27 112 46 146 39 11 -2 30 -4 43 -4z"/>
<path d="M1534 5447 l-91 -252 181 -7 c99 -4 182 -5 184 -4 4 4 -172 516 -178
516 -3 0 -46 -114 -96 -253z"/>
</g>
</svg>
